TITLE ""
FILE "Step3_Track47.mp3" MP3
  TRACK 01 AUDIO
    TITLE "Step3_Track47_01"
    INDEX 01 00:00:00
  TRACK 02 AUDIO
    TITLE "Step3_Track47_02"
    INDEX 01 00:00:22
  TRACK 03 AUDIO
    TITLE "Step3_Track47_03"
    INDEX 01 00:02:01
  TRACK 04 AUDIO
    TITLE "Step3_Track47_04"
    INDEX 01 00:02:60
  TRACK 05 AUDIO
    TITLE "Step3_Track47_05"
    INDEX 01 00:03:56
  TRACK 06 AUDIO
    TITLE "Step3_Track47_06"
    INDEX 01 00:04:02
  TRACK 07 AUDIO
    TITLE "Step3_Track47_07"
    INDEX 01 00:07:71
  TRACK 08 AUDIO
    TITLE "Step3_Track47_08"
    INDEX 01 00:08:25
  TRACK 09 AUDIO
    TITLE "Step3_Track47_09"
    INDEX 01 00:09:21
  TRACK 10 AUDIO
    TITLE "Step3_Track47_10"
    INDEX 01 00:09:27
  TRACK 11 AUDIO
    TITLE "Step3_Track47_11"
    INDEX 01 00:13:72
  TRACK 12 AUDIO
    TITLE "Step3_Track47_12"
    INDEX 01 00:14:38
  TRACK 13 AUDIO
    TITLE "Step3_Track47_13"
    INDEX 01 00:15:37
  TRACK 14 AUDIO
    TITLE "Step3_Track47_14"
    INDEX 01 00:15:41
  TRACK 15 AUDIO
    TITLE "Step3_Track47_15"
    INDEX 01 00:19:43
  TRACK 16 AUDIO
    TITLE "Step3_Track47_16"
    INDEX 01 00:19:68
  TRACK 17 AUDIO
    TITLE "Step3_Track47_17"
    INDEX 01 00:20:66
  TRACK 18 AUDIO
    TITLE "Step3_Track47_18"
    INDEX 01 00:21:20
  TRACK 19 AUDIO
    TITLE "Step3_Track47_19"
    INDEX 01 00:24:75
  TRACK 20 AUDIO
    TITLE "Step3_Track47_20"
    INDEX 01 00:25:38
  TRACK 21 AUDIO
    TITLE "Step3_Track47_21"
    INDEX 01 00:26:29
  TRACK 22 AUDIO
    TITLE "Step3_Track47_22"
    INDEX 01 00:26:37
  TRACK 23 AUDIO
    TITLE "Step3_Track47_23"
    INDEX 01 00:31:17
  TRACK 24 AUDIO
    TITLE "Step3_Track47_24"
    INDEX 01 00:31:30
  TRACK 25 AUDIO
    TITLE "Step3_Track47_25"
    INDEX 01 00:32:38
  TRACK 26 AUDIO
    TITLE "Step3_Track47_26"
    INDEX 01 00:32:59
  TRACK 27 AUDIO
    TITLE "Step3_Track47_27"
    INDEX 01 00:37:09
  TRACK 28 AUDIO
    TITLE "Step3_Track47_28"
    INDEX 01 00:37:31
  TRACK 29 AUDIO
    TITLE "Step3_Track47_29"
    INDEX 01 00:38:34
  TRACK 30 AUDIO
    TITLE "Step3_Track47_30"
    INDEX 01 00:38:44
  TRACK 31 AUDIO
    TITLE "Step3_Track47_31"
    INDEX 01 00:43:06
  TRACK 32 AUDIO
    TITLE "Step3_Track47_32"
    INDEX 01 00:43:34
  TRACK 33 AUDIO
    TITLE "Step3_Track47_33"
    INDEX 01 00:44:29
  TRACK 34 AUDIO
    TITLE "Step3_Track47_34"
    INDEX 01 00:44:37
  TRACK 35 AUDIO
    TITLE "Step3_Track47_35"
    INDEX 01 00:49:64
  TRACK 36 AUDIO
    TITLE "Step3_Track47_36"
    INDEX 01 00:50:12
  TRACK 37 AUDIO
    TITLE "Step3_Track47_37"
    INDEX 01 00:51:17
  TRACK 38 AUDIO
    TITLE "Step3_Track47_38"
    INDEX 01 00:51:27
  TRACK 39 AUDIO
    TITLE "Step3_Track47_39"
    INDEX 01 00:55:19
  TRACK 40 AUDIO
    TITLE "Step3_Track47_40"
    INDEX 01 00:55:43
  TRACK 41 AUDIO
    TITLE "Step3_Track47_41"
    INDEX 01 00:56:36
  TRACK 42 AUDIO
    TITLE "Step3_Track47_42"
    INDEX 01 00:56:44
  TRACK 43 AUDIO
    TITLE "Step3_Track47_43"
    INDEX 01 01:00:34
